<svg xmlns="http://www.w3.org/2000/svg" xmlns:xlink="http://www.w3.org/1999/xlink" width="1500" height="1500" viewBox="0 0 1500 1500">
  <defs>
    <clipPath id="clip-undraw_welcome_cats_thqn">
      <rect width="1500" height="1500"/>
    </clipPath>
  </defs>
  <g id="undraw_welcome_cats_thqn" clip-path="url(#clip-undraw_welcome_cats_thqn)">
    <rect width="1500" height="1500" fill="#fff"/>
    <g id="Group_181" data-name="Group 181" transform="translate(64 -290.505)">
      <path id="Path_6109" data-name="Path 6109" d="M699.72,189.53a21.346,21.346,0,0,0-2.78-2.04v-.01a2.535,2.535,0,0,0-.28-.16,21.244,21.244,0,0,0-3.52-1.72,21.68,21.68,0,0,0-7.79-1.43h-242a22.026,22.026,0,0,0-22,22v475a21.781,21.781,0,0,0,1.01,6.59c.07.23.15.46.23.68.06.18.12.35.19.52a19.122,19.122,0,0,0,1.17,2.56c.21.39.43.77.66,1.15.21.35.43.68.67,1.01q.165.255.36.51a.209.209,0,0,0,.06.08c.21.29.43.58.67.86.37.45.76.89,1.16,1.3.27.29.55.56.83.82a21.934,21.934,0,0,0,14.99,5.92h242a22.011,22.011,0,0,0,22-22v-475a21.94,21.94,0,0,0-7.63-16.64Z" transform="translate(250.569 487.339)" fill="#b0e0f6"/>
      <path id="Path_6110" data-name="Path 6110" d="M693.85,435.67h-.03c-.68-.02-1.36,0-2.04,0H656.5a52.212,52.212,0,0,0-5.87,0,7.388,7.388,0,0,0-3.49,1.16,6.545,6.545,0,0,0-2.82,5.34,6.629,6.629,0,0,0,6.65,6.5c1,.02,2.01,0,3.01,0h35.57c3.78,0,8.12.48,10.11-3.65a6.573,6.573,0,0,0-5.81-9.35Z" transform="translate(250.569 487.339)" fill="#dff1fd"/>
      <circle id="Ellipse_906" data-name="Ellipse 906" cx="10" cy="10" r="10" transform="translate(912.883 958.012)" fill="#dff1fd"/>
      <circle id="Ellipse_907" data-name="Ellipse 907" cx="4" cy="4" r="4" transform="translate(918.883 964.012)" fill="#dff1fd"/>
      <path id="Path_6111" data-name="Path 6111" d="M439.344,591.163a37.323,37.323,0,0,0-10.98,26.5,23.092,23.092,0,0,0,23.087,23.09H693.274c3.72,0,4.88,2.41,2.37,5.15-.91.99-1.89.83-2.87.85-4.45.08-8.92,0-13.38,0H465.844a37.481,37.481,0,0,0-37.48,37.488v13.012a22,22,0,0,1-6-9.49V685.5a38.935,38.935,0,0,0-1.01-8.83v-58.82a30.615,30.615,0,0,0,1.01-7.83,29.691,29.691,0,0,0-1.01-7.71v-51.03a30.672,30.672,0,0,0,1.01-7.83,29.691,29.691,0,0,0-1.01-7.71V484.7a30.672,30.672,0,0,0,1.01-7.83v-41.69h6v23.36a49.062,49.062,0,0,0,49.058,49.06H693.294c3.72,0,4.89,2.41,2.37,5.15-.92.99-1.91.84-2.89.85-4.45.08-8.92,0-13.38,0H465.844a37.486,37.486,0,0,0-37.48,37.482,23.094,23.094,0,0,0,23.1,23.1H693.274c3.72,0,4.88,2.4,2.37,5.15-.91.99-1.89.83-2.87.85-4.45.08-8.92,0-13.38,0H465.844a37.324,37.324,0,0,0-26.5,10.98Z" transform="translate(250.569 487.339)" fill="#dff1fd"/>
      <path id="Path_6112" data-name="Path 6112" d="M695.644,321.9c-.91.99-1.89.83-2.87.85-4.45.08-8.92,0-13.38,0H465.844a37.481,37.481,0,0,0-37.48,37.488v13.012a22,22,0,0,1-6-9.49V361.5a38.934,38.934,0,0,0-1.01-8.83v-58.82a30.615,30.615,0,0,0,1.01-7.83,29.691,29.691,0,0,0-1.01-7.71v-72.14a22.026,22.026,0,0,1,22-22h242a21.679,21.679,0,0,1,7.79,1.43,21.237,21.237,0,0,1,3.52,1.72,5.66,5.66,0,0,1-1,1.43c-.92.99-1.91.84-2.89.85-4.45.08-8.92,0-13.38,0H465.844a37.486,37.486,0,0,0-37.48,37.482,23.094,23.094,0,0,0,23.1,23.1H693.274c3.72,0,4.88,2.4,2.37,5.15-.91.99-1.89.83-2.87.85-4.45.08-8.92,0-13.38,0H465.844a37.486,37.486,0,0,0-37.48,37.472,23.094,23.094,0,0,0,23.1,23.1H693.274C696.994,316.753,698.154,319.163,695.644,321.9Z" transform="translate(250.569 487.339)" fill="#dff1fd"/>
      <circle id="Ellipse_908" data-name="Ellipse 908" cx="15" cy="15" r="15" transform="translate(971.569 867.339)" fill="#fff"/>
      <path id="Path_6113" data-name="Path 6113" d="M348.07,657.67c-1.87,13.8-13.06,25.94-26.12,31.83a65.029,65.029,0,0,1-8.65,3.17c-12.97,3.79-26.99,3.95-40.63,4.03q-20.67.135-41.34.26c-10.87.07-22.09.07-32.13-4.1-.15-.06-.3-.12-.44-.19-9.85-4.26-18.26-13.61-18.02-24.32a22,22,0,0,1,3.1-10.68,31.394,31.394,0,0,1,4.58-6c5.47-5.67,13.05-10.11,20.15-13.68,12.92-6.49,27.7-15.11,29.1-29.5.81-8.3-3.23-15.95-8.38-22.78-.51-.69-1.04-1.37-1.58-2.04-1.16-1.45-2.35-2.87-3.54-4.24-.5-.58-1.01-1.17-1.52-1.76-6.75-7.82-13.58-16.41-13.84-26.63-.27-10.69,11.67-21.45,20.71-16.4q6.645-.66,13.3-1.33,8.16-.81,16.3-1.63c1.21-.11,2.41-.23,3.61-.36q16.935-1.68,33.85-3.38c5.02-.5,10.91-.68,14.17,3.17,3.55,4.21,1.71,10.85-1.8,15.09s-8.38,7.23-11.69,11.62c-4.26,5.66-5.26,12.82-4.03,19.85a36.084,36.084,0,0,0,1.58,6,40.19,40.19,0,0,0,5.08,9.78c7.4,10.38,18.36,17.53,28.1,25.75s18.86,18.68,20.2,31.35c.04.37.07.75.09,1.12a29.275,29.275,0,0,1-.21,6Z" transform="translate(250.569 550.538)" fill="#b0e0f6"/>
      <path id="Path_6114" data-name="Path 6114" d="M268.887,542.371a143.158,143.158,0,0,1-24.846-32.886,146.017,146.017,0,0,1-14.551-38.37,140.26,140.26,0,0,1-3.009-41.511,145.35,145.35,0,0,1,30.109-77.831q1.6-2.048,3.269-4.033c1.243-1.48,3.356.652,2.121,2.121a140.442,140.442,0,0,0,9.027,190.39c1.377,1.358-.745,3.479-2.121,2.121Z" transform="translate(250.569 550.538)" fill="#dff1fd"/>
      <path id="Path_6115" data-name="Path 6115" d="M255.381,354.319a36.355,36.355,0,0,0,3.563-1.554c.059.09.116.182.174.272Z" transform="translate(250.569 550.538)" fill="#dff1fd"/>
      <path id="Path_6116" data-name="Path 6116" d="M254.059,315.732c4.194-5.255,12.211-7.611,18.011-4.211,3.889,2.28,6.217,6.711,6.658,11.2a24.518,24.518,0,0,1-2.812,13.05,37.9,37.9,0,0,1-16.972,17c-3.6-5.554-6.979-11.4-8.417-17.853C249.067,328.349,249.866,320.986,254.059,315.732Z" transform="translate(250.569 550.538)" fill="#dff1fd"/>
      <path id="Path_6117" data-name="Path 6117" d="M202.29,353.231a61.394,61.394,0,0,1,9.53-50.514c1.06,17.593,19.5,28.8,26.245,45.078a36.638,36.638,0,0,1-2,31.694l-1.014,13.351a61.394,61.394,0,0,1-32.766-39.609Z" transform="translate(250.569 550.538)" fill="#dff1fd"/>
      <path id="Path_6118" data-name="Path 6118" d="M169.635,403.157c9.22,15.022,30.759,16.224,44.38,27.409a36.638,36.638,0,0,1,13.164,28.9l5.392,12.255a60.5,60.5,0,0,1-62.937-68.564Z" transform="translate(250.569 550.538)" fill="#dff1fd"/>
      <path id="Path_6119" data-name="Path 6119" d="M254.542,436.009a60.5,60.5,0,0,1,1.66,93.055l-4.54-12.6a36.638,36.638,0,0,1-10.382-30.012C243.44,468.965,258.216,453.248,254.542,436.009Z" transform="translate(250.569 550.538)" fill="#dff1fd"/>
      <path id="Path_6120" data-name="Path 6120" d="M663.354,317.673a99.268,99.268,0,0,1-1.29,16q-.54,3.345-1.31,6.61c-.19.8-.38,1.6-.59,2.39-.66,2.55-1.43,5.07-2.29,7.53a99.045,99.045,0,0,1-46.72,54.71c-1.41.77-2.85,1.5-4.3,2.19q-2.76,1.32-5.61,2.46-1.68.675-3.39,1.29a99.441,99.441,0,0,1-63,1.35c-1.01-.31-2-.64-2.99-.99q-3.06-1.05-6.01-2.3c-1.32-.56-2.62-1.14-3.9-1.76a99.269,99.269,0,0,1-51.13-56.95c-.85-2.47-1.62-4.98-2.28-7.53-.21-.79-.4-1.59-.59-2.39q-.765-3.27-1.31-6.61a99.325,99.325,0,0,1,9.85-61.66c.06-.11.12-.23.18-.34a97.931,97.931,0,0,1,5.36-9l.39-.57a99.271,99.271,0,0,1,39.53-33.92c1.29-.61,2.59-1.2,3.9-1.75,1.91-.8,3.84-1.55,5.81-2.23,1.05-.37,2.12-.72,3.19-1.06a99.442,99.442,0,0,1,63,1.35c1.21.43,2.41.89,3.6,1.37q2.745,1.11,5.4,2.38,2.175,1.035,4.3,2.18a99.023,99.023,0,0,1,35.13,31.68l.39.57a97.918,97.918,0,0,1,5.36,9c.06.11.12.23.18.34A98.494,98.494,0,0,1,663.354,317.673Z" transform="translate(250.569 487.339)" fill="#fff"/>
      <path id="Path_6122" data-name="Path 6122" d="M708.35,724.61c0-1.62.09-3.26-.01-4.88a8.071,8.071,0,0,0-7.96-7.56c-1.02-.02-2.04,0-3.06,0H428.89a8.175,8.175,0,0,0-8.54,8.21c-.05,5.83,0,11.66,0,17.49v10.16c0,1.64-.11,3.34.05,4.98a8.044,8.044,0,0,0,7.94,7.16c.32.01.65,0,.97,0h271.1a8.076,8.076,0,0,0,7.94-8.15c.02-2.08,0-4.17,0-6.26Z" transform="translate(250.569 487.339)" fill="#b0e0f6"/>
      <circle id="Ellipse_909" data-name="Ellipse 909" cx="10" cy="10" r="10" transform="translate(934.423 923.012)" fill="#dff1fd"/>
    </g>
    <ellipse id="Ellipse_892" data-name="Ellipse 892" cx="696.742" cy="19.489" rx="696.742" ry="19.489" transform="translate(53 1059.576)" fill="#dff1fd"/>
    <path id="Path_6066" data-name="Path 6066" d="M865.317,539.572c-.88.012-1.76.024-2.651.024s-1.772-.012-2.651-.024c-46.64-1.061-80.445-30.2-71.84-60.777l20.982-74.588,5.3-18.873,94,1.6,5.713,18.463,22.488,72.672C946.184,508.816,912.379,538.511,865.317,539.572Z" transform="translate(255.739 328.314)" fill="#f68389"/>
    <path id="Path_6067" data-name="Path 6067" d="M906.094,405.4a103.759,103.759,0,0,1-105.018-1.193l5.3-18.873,94,1.6Z" transform="translate(263.82 328.314)" opacity="0.2"/>
    <path id="Path_6068" data-name="Path 6068" d="M866.111,501.925c4.061-15.134,17.407-36.966,54.836-63.289,65.276-45.914,26.336-80.341,24.649-81.783-3.54-3.026-3.017-6.423,1.215-7.584a17.592,17.592,0,0,1,14.16,3.3c2.113,1.748,50.875,43.389-22.785,95.191-66.291,46.628-52.2,77.065-52.034,77.357,1.776,3.255-1.072,5.86-6.368,5.825s-11.033-2.7-12.815-5.952C866.594,524.3,862.328,516.014,866.111,501.925Z" transform="translate(299.836 307.66)" fill="#f68389"/>
    <path id="Path_6069" data-name="Path 6069" d="M811.461,515.543A10.846,10.846,0,0,1,800.614,504.7v-47a10.846,10.846,0,1,1,21.693,0v47a10.846,10.846,0,0,1-10.847,10.846Z" transform="translate(263.559 363.214)" fill="#f68389"/>
    <path id="Path_6070" data-name="Path 6070" d="M836.552,432.163a10.846,10.846,0,0,1-14.387,5.32l-42.7-19.645a10.847,10.847,0,0,1,9.067-19.707l42.7,19.645a10.846,10.846,0,0,1,5.32,14.387Z" transform="translate(247.978 335.01)" fill="#f68389"/>
    <path id="Path_6071" data-name="Path 6071" d="M857.19,432.163a10.846,10.846,0,0,0,14.387,5.32l42.7-19.645a10.846,10.846,0,1,0-9.067-19.707l-42.7,19.645a10.847,10.847,0,0,0-5.32,14.387Z" transform="translate(295.092 335.01)" fill="#f68389"/>
    <path id="Path_6072" data-name="Path 6072" d="M866.823,515.543A10.846,10.846,0,0,0,877.67,504.7v-47a10.847,10.847,0,0,0-21.693,0v47a10.846,10.846,0,0,0,10.847,10.846Z" transform="translate(294.968 363.214)" fill="#f68389"/>
    <path id="Path_6073" data-name="Path 6073" d="M961.437,328.009a10.666,10.666,0,0,0,2.153-8.477l-5.9-34.728-5.9-34.728a10.835,10.835,0,0,0-17.6-6.527l-27.123,22.476-16.341,13.541a102.964,102.964,0,0,0-32.988-.5L842,266.026,814.872,243.55a10.835,10.835,0,0,0-17.6,6.527l-5.9,34.728-5.9,34.728a10.727,10.727,0,0,0,.473,5.445,103.629,103.629,0,1,0,175.494,3.032Z" transform="translate(245.683 246.46)" fill="#f68389"/>
    <path id="Path_6074" data-name="Path 6074" d="M801.111,251.728a5.4,5.4,0,0,0-1.884.342,5.31,5.31,0,0,0-3.424,4.13l-7.159,42.114a5.364,5.364,0,0,0,7.154,5.928l40.051-14.857a5.364,5.364,0,0,0,1.557-9.159h0l-32.891-27.256a5.316,5.316,0,0,0-3.4-1.241Z" transform="translate(256.726 252.514)" fill="#e6e6e6"/>
    <path id="Path_6075" data-name="Path 6075" d="M890.008,251.728a5.316,5.316,0,0,0-3.4,1.241l-32.892,27.257a5.364,5.364,0,0,0,1.557,9.159l40.051,14.857a5.364,5.364,0,0,0,7.155-5.928L895.315,256.2a5.31,5.31,0,0,0-3.424-4.13A5.4,5.4,0,0,0,890.008,251.728Z" transform="translate(292.582 252.514)" fill="#e6e6e6"/>
    <circle id="Ellipse_893" data-name="Ellipse 893" cx="14.462" cy="14.462" r="14.462" transform="translate(1103.943 628.082)" fill="#fff"/>
    <ellipse id="Ellipse_894" data-name="Ellipse 894" cx="9.641" cy="3.615" rx="9.641" ry="3.615" transform="translate(1108.764 631.698)" fill="#3f3d56"/>
    <path id="Path_6076" data-name="Path 6076" d="M675.14,125.04H688.4v16.27a6.629,6.629,0,0,1-6.629,6.628h0a6.628,6.628,0,0,1-6.628-6.628Z" transform="translate(436.034 525.94)" fill="#ff6584"/>
    <path id="Path_6077" data-name="Path 6077" d="M839.477,240.69c-.7,1.442-1.37,2.9-2,4.386a103.16,103.16,0,0,0-7.29,55.4c1.357-1.969,2.783-4.02,4.234-6.093a103.092,103.092,0,0,1,5.061-53.688Z" transform="translate(279.733 246.251)" fill="#3f3d56"/>
    <path id="Path_6078" data-name="Path 6078" d="M846.4,249.148c-.7,1.442-1.37,2.9-2,4.386a103.158,103.158,0,0,0-7.29,55.4c1.357-1.969,2.783-4.02,4.233-6.093a103.094,103.094,0,0,1,5.061-53.688Z" transform="translate(283.659 251.05)" fill="#3f3d56"/>
    <path id="Path_6079" data-name="Path 6079" d="M897.509,431.267l-1.528-19.432L894.453,392.4a6,6,0,0,0-9.373-4.471l-16.065,11.039-11.731,8.061a7.986,7.986,0,0,0-12.146,0l-11.731-8.061-16.064-11.039a6,6,0,0,0-9.373,4.471l-1.528,19.432-1.528,19.432a6,6,0,0,0,8.559,5.881l17.592-8.393,14.455-6.9a8,8,0,0,0,11.381,0l14.455,6.9,17.593,8.393a6,6,0,0,0,8.559-5.881Z" transform="translate(265.988 329.19)" fill="#fec230"/>
    <circle id="Ellipse_895" data-name="Ellipse 895" cx="3.615" cy="3.615" r="3.615" transform="translate(1095.507 623.262)" fill="#3f3d56"/>
    <circle id="Ellipse_896" data-name="Ellipse 896" cx="3.615" cy="3.615" r="3.615" transform="translate(1134.072 623.262)" fill="#3f3d56"/>
    <path id="Path_6080" data-name="Path 6080" d="M415.3,519.192c.88.012,1.76.024,2.651.024s1.772-.012,2.651-.024c46.64-1.061,80.445-30.2,71.84-60.777l-20.982-74.588-5.3-18.873-94,1.6-5.712,18.463-22.488,72.672C334.43,488.436,368.235,518.132,415.3,519.192Z" transform="translate(3.561 316.752)" fill="#f68389"/>
    <path id="Path_6081" data-name="Path 6081" d="M357.715,385.021a103.759,103.759,0,0,0,105.018-1.193l-5.3-18.873-94,1.6Z" transform="translate(12.284 316.752)" opacity="0.2"/>
    <path id="Path_6082" data-name="Path 6082" d="M408.763,458.012c-10.146-11.941-31.551-25.963-76.643-33.738-78.645-13.567-58.181-61.345-57.273-63.371,1.9-4.249-.021-7.1-4.344-6.334a17.591,17.591,0,0,0-11.388,9.038c-1.162,2.484-27.416,60.985,61.325,76.287,79.867,13.778,80.152,47.318,80.131,47.652-.213,3.7,3.476,4.838,8.248,2.54s8.816-7.161,9.036-10.863C417.9,478.44,418.21,469.128,408.763,458.012Z" transform="translate(-46.213 310.79)" fill="#f68389"/>
    <path id="Path_6083" data-name="Path 6083" d="M422.187,495.164a10.846,10.846,0,0,0,10.846-10.847v-47a10.846,10.846,0,0,0-21.693,0v47a10.846,10.846,0,0,0,10.847,10.846Z" transform="translate(42.708 351.652)" fill="#f68389"/>
    <path id="Path_6084" data-name="Path 6084" d="M412.553,411.784a10.846,10.846,0,0,0,14.387,5.32l42.7-19.645a10.847,10.847,0,1,0-9.067-19.707l-42.7,19.645a10.846,10.846,0,0,0-5.32,14.387Z" transform="translate(42.831 323.448)" fill="#f68389"/>
    <path id="Path_6085" data-name="Path 6085" d="M391.916,411.784a10.846,10.846,0,0,1-14.387,5.32l-42.7-19.645a10.846,10.846,0,0,1,9.067-19.707L386.6,397.4A10.846,10.846,0,0,1,391.916,411.784Z" transform="translate(-4.283 323.448)" fill="#f68389"/>
    <path id="Path_6086" data-name="Path 6086" d="M366.824,495.164a10.846,10.846,0,0,1-10.846-10.847v-47a10.846,10.846,0,0,1,21.693,0v47a10.846,10.846,0,0,1-10.847,10.846Z" transform="translate(11.299 351.652)" fill="#f68389"/>
    <path id="Path_6087" data-name="Path 6087" d="M514.888,304.6a10.727,10.727,0,0,0,.473-5.445l-5.9-34.727-5.9-34.728a10.835,10.835,0,0,0-17.6-6.527l-27.123,22.476L443.095,258.69a102.964,102.964,0,0,0-32.988.5l-16.341-13.541-27.123-22.476a10.835,10.835,0,0,0-17.6,6.527l-5.9,34.728-5.9,34.728a10.667,10.667,0,0,0,2.153,8.477A103.659,103.659,0,1,0,514.888,304.6Z" transform="translate(-6.6 234.898)" fill="#f68389"/>
    <path id="Path_6088" data-name="Path 6088" d="M439.66,232.589l-32.891,27.256h0a5.364,5.364,0,0,0,1.557,9.159l40.051,14.857a5.364,5.364,0,0,0,7.154-5.928l-7.159-42.114a5.31,5.31,0,0,0-3.424-4.13,5.4,5.4,0,0,0-1.884-.342,5.316,5.316,0,0,0-3.4,1.241Z" transform="translate(39.013 240.952)" fill="#e6e6e6"/>
    <path id="Path_6089" data-name="Path 6089" d="M352.285,231.69a5.31,5.31,0,0,0-3.424,4.13L341.7,277.934a5.364,5.364,0,0,0,7.154,5.928l40.051-14.857a5.364,5.364,0,0,0,1.557-9.159l-32.892-27.257a5.317,5.317,0,0,0-3.4-1.241,5.4,5.4,0,0,0-1.884.342Z" transform="translate(3.156 240.952)" fill="#e6e6e6"/>
    <circle id="Ellipse_897" data-name="Ellipse 897" cx="14.462" cy="14.462" r="14.462" transform="translate(407.047 596.141)" fill="#fff"/>
    <ellipse id="Ellipse_898" data-name="Ellipse 898" cx="9.641" cy="3.615" rx="9.641" ry="3.615" transform="translate(411.867 599.756)" fill="#3f3d56"/>
    <path id="Path_6090" data-name="Path 6090" d="M6.628,0h0a6.628,6.628,0,0,1,6.628,6.628V22.9H0V6.628A6.628,6.628,0,0,1,6.628,0Z" transform="translate(428.739 641.937) rotate(180)" fill="#ff6584"/>
    <path id="Path_6091" data-name="Path 6091" d="M390.066,220.31c.7,1.442,1.37,2.9,2,4.386a103.159,103.159,0,0,1,7.289,55.4c-1.357-1.969-2.783-4.02-4.233-6.093a103.092,103.092,0,0,0-5.061-53.688Z" transform="translate(30.638 234.689)" fill="#3f3d56"/>
    <path id="Path_6092" data-name="Path 6092" d="M383.146,228.768c.7,1.442,1.37,2.9,2,4.386a103.16,103.16,0,0,1,7.289,55.4c-1.357-1.969-2.783-4.02-4.233-6.093A103.092,103.092,0,0,0,383.146,228.768Z" transform="translate(26.712 239.488)" fill="#3f3d56"/>
    <path id="Path_6093" data-name="Path 6093" d="M361.816,276.326l1.528-19.432,1.528-19.432a6,6,0,0,1,9.373-4.471L390.31,244.03l11.731,8.061a7.986,7.986,0,0,1,12.145,0l11.731-8.061,16.065-11.039a6,6,0,0,1,9.373,4.471l1.528,19.432,1.528,19.432a6,6,0,0,1-8.559,5.881l-17.593-8.393-14.455-6.9a8,8,0,0,1-11.381,0l-14.455,6.9-17.593,8.393a6,6,0,0,1-8.559-5.881Z" transform="translate(14.601 241.285)" fill="#fec230"/>
    <path id="Path_6094" data-name="Path 6094" d="M400.575,310.9c0,2,1.619,0,3.616,0s3.615,2,3.615,0a3.616,3.616,0,1,0-7.231,0Z" transform="translate(36.601 284.034)" fill="#3f3d56"/>
    <path id="Path_6095" data-name="Path 6095" d="M383.2,310.9c0,2-1.619,0-3.616,0s-3.615,2-3.615,0a3.616,3.616,0,0,1,7.231,0Z" transform="translate(22.641 284.034)" fill="#3f3d56"/>
    <path id="Path_6096" data-name="Path 6096" d="M522.644,271.77V248.788H407.736V480.041H522.644V457.059H430.718V271.77Z" transform="translate(284.325 596.147)" fill="#028ffa"/>
    <path id="Path_6097" data-name="Path 6097" d="M672.253,469.1V700.351H787.161V469.1Zm91.926,208.271H695.234V492.08h68.945Z" transform="translate(190.734 375.837)" fill="#01c9fc"/>
    <path id="Path_6098" data-name="Path 6098" d="M321.663,456.539V249.705H298.681V479.521H413.589V456.539Z" transform="translate(222.454 596.667)" fill="#01c9fc"/>
    <path id="Path_6099" data-name="Path 6099" d="M307.284,271.77V248.788H192.376V480.041H307.284V457.059H215.358V375.188h91.926V352.206H215.358V271.77Z" transform="translate(162.143 596.147)" fill="#028ffa"/>
    <path id="Path_6100" data-name="Path 6100" d="M880.966,271.77V248.788H766.058V480.041H880.966V457.059H789.04V375.188h91.926V352.206H789.04V271.77Z" transform="translate(487.616 596.147)" fill="#01c9fc"/>
    <path id="Path_6101" data-name="Path 6101" d="M195.661,249.965V439.9L135.066,379.31l-.138.139-.129-.129L72.854,441.267V249.247H49.872V479.063H72.854v-5.3l62.086-62.086,60.722,60.724v7.376h22.982V249.965Z" transform="translate(81.294 596.408)" fill="#028ffa"/>
    <path id="Path_6102" data-name="Path 6102" d="M770.261,249.965v5.294l-62.085,62.086-60.724-60.722v-7.376H624.47V479.063h22.982V289.123l60.595,60.595.14-.14.127.127,61.948-61.946V479.781h22.98V249.965Z" transform="translate(407.287 596.408)" fill="#028ffa"/>
    <circle id="Ellipse_899" data-name="Ellipse 899" cx="14.106" cy="14.106" r="14.106" transform="translate(564.071 676.59)" fill="#028ffa"/>
    <circle id="Ellipse_900" data-name="Ellipse 900" cx="14.106" cy="14.106" r="14.106" transform="translate(216.122 833.324)" fill="#028ffa"/>
    <circle id="Ellipse_901" data-name="Ellipse 901" cx="14.106" cy="14.106" r="14.106" transform="translate(495.108 1146.792)" fill="#028ffa"/>
    <circle id="Ellipse_902" data-name="Ellipse 902" cx="14.106" cy="14.106" r="14.106" transform="translate(849.327 718.908)" fill="#028ffa"/>
    <circle id="Ellipse_903" data-name="Ellipse 903" cx="14.106" cy="14.106" r="14.106" transform="translate(1264.673 1134.253)" fill="#028ffa"/>
    <circle id="Ellipse_904" data-name="Ellipse 904" cx="14.106" cy="14.106" r="14.106" transform="translate(1278.779 764.361)" fill="#028ffa"/>
    <circle id="Ellipse_905" data-name="Ellipse 905" cx="14.106" cy="14.106" r="14.106" transform="translate(1100.102 1018.27)" fill="#028ffa"/>
  </g>
</svg>
